<svg width="32" height="32" viewBox="0 0 32 32" fill="none" xmlns="http://www.w3.org/2000/svg">
<rect width="32" height="32" fill="#ED3237"/>
<path d="M12.9751 14.0895C12.8686 13.7443 12.7216 13.4354 12.5341 13.1626C12.3509 12.8857 12.1293 12.6491 11.8693 12.4531C11.6136 12.2571 11.3196 12.1101 10.9872 12.0121C10.6548 11.9098 10.2926 11.8587 9.90057 11.8587C9.19744 11.8587 8.57102 12.0355 8.02131 12.3892C7.47159 12.7429 7.03906 13.2628 6.72372 13.9489C6.41264 14.6307 6.2571 15.4616 6.2571 16.4418C6.2571 17.4304 6.41264 18.2678 6.72372 18.9538C7.0348 19.6399 7.46733 20.1619 8.02131 20.5199C8.57528 20.8736 9.21875 21.0504 9.9517 21.0504C10.6165 21.0504 11.1918 20.9226 11.6776 20.6669C12.1676 20.4112 12.5447 20.049 12.8089 19.5803C13.0732 19.1072 13.2053 18.5533 13.2053 17.9183L13.7422 18.0014H10.1882V16.1477H15.5V17.7202C15.5 18.8409 15.2614 19.8104 14.7841 20.6286C14.3068 21.4467 13.6506 22.0774 12.8153 22.5206C11.9801 22.9595 11.0213 23.179 9.93892 23.179C8.73295 23.179 7.67401 22.9084 6.76207 22.3672C5.8544 21.8217 5.14489 21.0483 4.63352 20.0469C4.12642 19.0412 3.87287 17.848 3.87287 16.4673C3.87287 15.4105 4.02202 14.4666 4.32031 13.6357C4.62287 12.8047 5.04474 12.0994 5.58594 11.5199C6.12713 10.9361 6.76207 10.4929 7.49077 10.1903C8.21946 9.88352 9.01207 9.73011 9.86861 9.73011C10.593 9.73011 11.2685 9.83665 11.8949 10.0497C12.5213 10.2585 13.0774 10.5568 13.5632 10.9446C14.0533 11.3324 14.456 11.7926 14.7713 12.3253C15.0866 12.858 15.2933 13.446 15.3913 14.0895H12.9751ZM17.7931 23V9.90909H22.7022C23.7079 9.90909 24.5517 10.0966 25.2335 10.4716C25.9196 10.8466 26.4373 11.3622 26.7868 12.0185C27.1404 12.6705 27.3173 13.4119 27.3173 14.2429C27.3173 15.0824 27.1404 15.8281 26.7868 16.4801C26.4331 17.1321 25.911 17.6456 25.2207 18.0206C24.5304 18.3913 23.6802 18.5767 22.6703 18.5767H19.4167V16.6271H22.3507C22.9387 16.6271 23.4203 16.5249 23.7953 16.3203C24.1703 16.1158 24.4473 15.8345 24.6262 15.4766C24.8095 15.1186 24.9011 14.7074 24.9011 14.2429C24.9011 13.7784 24.8095 13.3693 24.6262 13.0156C24.4473 12.6619 24.1681 12.3871 23.7889 12.1911C23.4139 11.9908 22.9302 11.8906 22.3379 11.8906H20.1646V23H17.7931Z" fill="white"/>
</svg>
